<svg xmlns="http://www.w3.org/2000/svg" width="51.426" height="51.426" viewBox="0 0 51.426 51.426"><defs><style>.a{fill:#e0e1e2;}</style></defs><path class="a" d="M33.713,8A25.713,25.713,0,1,0,59.426,33.713,25.709,25.709,0,0,0,33.713,8Zm14.93,28.616A1.248,1.248,0,0,1,47.4,37.86H37.86V47.4a1.248,1.248,0,0,1-1.244,1.244H30.81A1.248,1.248,0,0,1,29.566,47.4V37.86H20.027a1.248,1.248,0,0,1-1.244-1.244V30.81a1.248,1.248,0,0,1,1.244-1.244h9.539V20.027a1.248,1.248,0,0,1,1.244-1.244h5.806a1.248,1.248,0,0,1,1.244,1.244v9.539H47.4a1.248,1.248,0,0,1,1.244,1.244Z" transform="translate(-8 -8)"/></svg>