<svg xmlns="http://www.w3.org/2000/svg" width="27.574" height="27.574" viewBox="0 0 27.574 27.574"><defs><style>.a{fill:#e0e1e2;}</style></defs><path class="a" d="M19.013,93.787l7.839-7.839a2.464,2.464,0,0,0,0-3.484L25.11,80.721a2.464,2.464,0,0,0-3.484,0L13.787,88.56,5.948,80.721a2.464,2.464,0,0,0-3.484,0L.721,82.464a2.464,2.464,0,0,0,0,3.484L8.56,93.787.721,101.626a2.464,2.464,0,0,0,0,3.484l1.742,1.742a2.464,2.464,0,0,0,3.484,0l7.839-7.839,7.839,7.839a2.464,2.464,0,0,0,3.484,0l1.742-1.742a2.464,2.464,0,0,0,0-3.484Z" transform="translate(0 -80)"/></svg>