<svg xmlns="http://www.w3.org/2000/svg" width="48.476" height="43.081" viewBox="0 0 48.476 43.081"><defs><style>.a{fill:#e0e1e2;}</style></defs><path class="a" d="M33.882,7.094l7.591,7.591a.823.823,0,0,1,0,1.161l-18.38,18.38-7.81.867a1.637,1.637,0,0,1-1.809-1.809l.867-7.81,18.38-18.38A.823.823,0,0,1,33.882,7.094ZM47.516,5.166,43.409,1.059a3.291,3.291,0,0,0-4.646,0L35.784,4.039a.823.823,0,0,0,0,1.161l7.591,7.591a.823.823,0,0,0,1.161,0l2.979-2.979A3.291,3.291,0,0,0,47.516,5.166Zm-15.2,24.061v8.567H5.386V10.864h19.34a1.035,1.035,0,0,0,.715-.295L28.808,7.2a1.01,1.01,0,0,0-.715-1.725H4.04A4.041,4.041,0,0,0,0,9.517V39.141a4.041,4.041,0,0,0,4.04,4.04H33.664a4.041,4.041,0,0,0,4.04-4.04V25.861a1.012,1.012,0,0,0-1.725-.715l-3.366,3.366A1.035,1.035,0,0,0,32.317,29.227Z" transform="translate(0 -0.1)"/></svg>