<svg xmlns="http://www.w3.org/2000/svg" width="44.151" height="50.458" viewBox="0 0 44.151 50.458"><defs><style>.a{fill:#e0e1e2;}</style></defs><path class="a" d="M22.075,50.458a6.306,6.306,0,0,0,6.3-6.307H15.77A6.306,6.306,0,0,0,22.075,50.458ZM43.3,35.7c-1.9-2.046-5.467-5.124-5.467-15.205A15.563,15.563,0,0,0,25.226,5.207V3.154a3.152,3.152,0,1,0-6.3,0V5.207A15.563,15.563,0,0,0,6.315,20.5C6.315,30.58,2.752,33.658.848,35.7A3.079,3.079,0,0,0,0,37.844,3.156,3.156,0,0,0,3.163,41H40.987a3.156,3.156,0,0,0,3.163-3.154A3.077,3.077,0,0,0,43.3,35.7Z" transform="translate(0.001)"/></svg>