<svg xmlns="http://www.w3.org/2000/svg" width="48.944" height="51.128" viewBox="0 0 48.944 51.128"><defs><style>.a{fill:#e0e1e2;}</style></defs><path class="a" d="M62.525,37.182l4.393,2.536a1.239,1.239,0,0,1,.563,1.442,25.524,25.524,0,0,1-5.637,9.75,1.239,1.239,0,0,1-1.529.232l-4.39-2.535a19.748,19.748,0,0,1-6.263,3.621V57.3a1.238,1.238,0,0,1-.967,1.208,25.767,25.767,0,0,1-11.258,0,1.239,1.239,0,0,1-.969-1.208v-5.07A19.745,19.745,0,0,1,30.2,48.606l-4.39,2.535a1.239,1.239,0,0,1-1.529-.232,25.525,25.525,0,0,1-5.637-9.75,1.239,1.239,0,0,1,.563-1.442L23.6,37.182a19.944,19.944,0,0,1,0-7.236L19.211,27.41a1.239,1.239,0,0,1-.563-1.442,25.524,25.524,0,0,1,5.637-9.75,1.239,1.239,0,0,1,1.529-.232l4.39,2.535A19.748,19.748,0,0,1,36.467,14.9V9.83a1.238,1.238,0,0,1,.967-1.208,25.767,25.767,0,0,1,11.258,0,1.239,1.239,0,0,1,.969,1.208V14.9a19.746,19.746,0,0,1,6.263,3.621l4.39-2.535a1.239,1.239,0,0,1,1.529.232,25.525,25.525,0,0,1,5.637,9.75,1.239,1.239,0,0,1-.563,1.442l-4.393,2.536A19.945,19.945,0,0,1,62.525,37.182ZM51.311,33.564a8.246,8.246,0,1,0-8.246,8.246A8.256,8.256,0,0,0,51.311,33.564Z" transform="translate(-18.592 -7.999)"/></svg>