<svg xmlns="http://www.w3.org/2000/svg" width="39.764" height="45.445" viewBox="0 0 39.764 45.445"><defs><style>.a{fill:#e0e1e2;}</style></defs><path class="a" d="M0,7.456V4.971A2.125,2.125,0,0,1,2.13,2.84h9.941l.834-1.66A2.106,2.106,0,0,1,14.805,0H24.95a2.129,2.129,0,0,1,1.908,1.18l.834,1.66h9.941a2.125,2.125,0,0,1,2.13,2.13V7.456A1.068,1.068,0,0,1,38.7,8.521H1.065A1.068,1.068,0,0,1,0,7.456Zm36.924,4.971V41.184a4.262,4.262,0,0,1-4.26,4.26H7.1a4.262,4.262,0,0,1-4.26-4.26V12.426a1.068,1.068,0,0,1,1.065-1.065H35.859A1.068,1.068,0,0,1,36.924,12.426ZM12.781,18.462a1.42,1.42,0,0,0-2.84,0V38.344a1.42,1.42,0,0,0,2.84,0Zm8.521,0a1.42,1.42,0,0,0-2.84,0V38.344a1.42,1.42,0,0,0,2.84,0Zm8.521,0a1.42,1.42,0,0,0-2.84,0V38.344a1.42,1.42,0,0,0,2.84,0Z"/></svg>